<svg width="24" height="25" viewBox="0 0 24 25" fill="none" xmlns="http://www.w3.org/2000/svg">
<path d="M6.18661 17.049C6.32639 16.6667 6.16397 16.2525 5.833 16.0155C5.67971 15.9057 5.52841 15.794 5.38168 15.6759C4.54706 15.0102 3.85376 14.214 3.429 13.2019C2.73923 11.5614 2.89461 9.97778 3.79886 8.472C4.73683 6.91019 6.129 5.93307 7.75965 5.31112C10.4626 4.2794 13.197 4.22835 15.9302 5.17842C17.5291 5.73402 18.9227 6.62575 19.9556 8.0483C21.4364 10.09 21.333 12.7002 19.706 14.6353C18.3876 16.2029 16.6825 17.0546 14.7707 17.5235C13.7328 17.7784 11.0473 17.3426 10.3564 17.9274C8.90094 19.1976 7.23103 20.001 5.3761 20.4064C5.20735 20.4429 5.03438 20.4662 4.8635 20.4917C4.64694 20.5246 4.46975 20.4626 4.35865 20.2526C4.24826 20.0426 4.28833 19.8516 4.42615 19.678C4.58646 19.4768 4.7496 19.277 4.92467 19.0918C5.47921 18.5076 5.90798 17.8111 6.18661 17.049Z" stroke="#308CFF" stroke-width="1.25" stroke-linecap="round"/>
</svg>
