<svg width="24" height="25" viewBox="0 0 24 25" fill="none" xmlns="http://www.w3.org/2000/svg">
<path d="M11.9999 3.5C9.49494 3.5 7.46431 5.56638 7.46431 8.11538C7.46431 9.07589 7.64454 9.85217 7.11214 11.5769C6.91612 12.2119 6.11934 13.5006 5.27859 14.7581C4.3664 16.1225 5.32154 18 6.96275 18C10.3208 18 13.6789 18 17.037 18C18.6782 18 19.6333 16.1225 18.7211 14.7581C17.8804 13.5006 17.0836 12.2119 16.8876 11.5769C16.3552 9.85217 16.5354 9.07589 16.5354 8.11538C16.5354 5.56638 14.5048 3.5 11.9999 3.5ZM11.9999 3.5V2M14.9999 18V18.5C14.9999 20.4882 13.6567 21.5 11.9999 21.5C10.343 21.5 8.99985 20.4882 8.99985 18.5V18" stroke="#308CFF" stroke-width="1.25" stroke-linecap="round"/>
</svg>
